<svg width="32" height="32" viewBox="0 0 45 44" fill="none" xmlns="http://www.w3.org/2000/svg" style="opacity: 0;">
                        <rect x="0.399902" width="44" height="44" rx="22" fill="#3C539A"></rect>
                        <path d="M20.0958 23.248C20.0238 23.248 18.4398 23.248 17.7198 23.248C17.3358 23.248 17.2158 23.104 17.2158 22.744C17.2158 21.784 17.2158 20.8 17.2158 19.84C17.2158 19.456 17.3598 19.336 17.7198 19.336H20.0958C20.0958 19.264 20.0958 17.872 20.0958 17.224C20.0958 16.264 20.2638 15.352 20.7438 14.512C21.2478 13.648 21.9678 13.072 22.8798 12.736C23.4798 12.52 24.0798 12.424 24.7278 12.424H27.0798C27.4158 12.424 27.5598 12.568 27.5598 12.904V15.64C27.5598 15.976 27.4158 16.12 27.0798 16.12C26.4318 16.12 25.7838 16.12 25.1358 16.144C24.4878 16.144 24.1518 16.456 24.1518 17.128C24.1278 17.848 24.1518 18.544 24.1518 19.288H26.9358C27.3198 19.288 27.4638 19.432 27.4638 19.816V22.72C27.4638 23.104 27.3438 23.224 26.9358 23.224C26.0718 23.224 24.2238 23.224 24.1518 23.224V31.048C24.1518 31.456 24.0318 31.6 23.5998 31.6C22.5918 31.6 21.6078 31.6 20.5998 31.6C20.2398 31.6 20.0958 31.456 20.0958 31.096C20.0958 28.576 20.0958 23.32 20.0958 23.248Z" fill="white"></path>
                      </svg>