<svg width="32" height="32" viewBox="0 0 44 44" fill="none" xmlns="http://www.w3.org/2000/svg" style="opacity: 0;">
                        <rect width="44" height="44" rx="22" fill="#A8A8A8"></rect>
                        <path d="M13.9 22C13.9 20.29 15.29 18.9 17 18.9H21V17H17C14.24 17 12 19.24 12 22C12 24.76 14.24 27 17 27H21V25.1H17C15.29 25.1 13.9 23.71 13.9 22ZM18 23H26V21H18V23ZM27 17H23V18.9H27C28.71 18.9 30.1 20.29 30.1 22C30.1 23.71 28.71 25.1 27 25.1H23V27H27C29.76 27 32 24.76 32 22C32 19.24 29.76 17 27 17Z" fill="white"></path>
                      </svg>