<svg width="32" height="32" viewBox="0 0 44 44" fill="none" xmlns="http://www.w3.org/2000/svg" style="opacity: 0;">
                        <rect width="44" height="44" rx="22" fill="#0077B7"></rect>
                        <path d="M31.5999 31.6V24.568C31.5999 21.112 30.8559 18.472 26.8239 18.472C24.8799 18.472 23.5839 19.528 23.0559 20.536H23.0079V18.784H19.1919V31.6H23.1759V25.24C23.1759 23.56 23.4879 21.952 25.5519 21.952C27.5919 21.952 27.6159 23.848 27.6159 25.336V31.576H31.5999V31.6Z" fill="white"></path>
                        <path d="M12.7119 18.784H16.6959V31.6H12.7119V18.784Z" fill="white"></path>
                        <path d="M14.7039 12.4C13.4319 12.4 12.3999 13.432 12.3999 14.704C12.3999 15.976 13.4319 17.032 14.7039 17.032C15.9759 17.032 17.0079 15.976 17.0079 14.704C17.0079 13.432 15.9759 12.4 14.7039 12.4Z" fill="white"></path>
                      </svg>