<svg width="110" class="no-preview" height="75" viewBox="0 0 110 75" fill="none" xmlns="http://www.w3.org/2000/svg">
                <rect width="110" height="75" rx="4" fill="#ECECEC"></rect>
                <path d="M36.3798 25.2727V34H35.1696L30.7335 27.5994H30.6525V34H29.3358V25.2727H30.5545L34.9949 31.6818H35.0758V25.2727H36.3798ZM40.9554 34.1321C40.3418 34.1321 39.8063 33.9915 39.3489 33.7102C38.8915 33.429 38.5364 33.0355 38.2836 32.5298C38.0307 32.0241 37.9043 31.4332 37.9043 30.7571C37.9043 30.0781 38.0307 29.4844 38.2836 28.9759C38.5364 28.4673 38.8915 28.0724 39.3489 27.7912C39.8063 27.5099 40.3418 27.3693 40.9554 27.3693C41.5691 27.3693 42.1046 27.5099 42.562 27.7912C43.0194 28.0724 43.3745 28.4673 43.6273 28.9759C43.8801 29.4844 44.0066 30.0781 44.0066 30.7571C44.0066 31.4332 43.8801 32.0241 43.6273 32.5298C43.3745 33.0355 43.0194 33.429 42.562 33.7102C42.1046 33.9915 41.5691 34.1321 40.9554 34.1321ZM40.9597 33.0625C41.3574 33.0625 41.687 32.9574 41.9483 32.7472C42.2097 32.5369 42.4029 32.2571 42.5279 31.9077C42.6557 31.5582 42.7196 31.1733 42.7196 30.7528C42.7196 30.3352 42.6557 29.9517 42.5279 29.6023C42.4029 29.25 42.2097 28.9673 41.9483 28.7543C41.687 28.5412 41.3574 28.4347 40.9597 28.4347C40.5591 28.4347 40.2267 28.5412 39.9625 28.7543C39.7012 28.9673 39.5066 29.25 39.3787 29.6023C39.2537 29.9517 39.1912 30.3352 39.1912 30.7528C39.1912 31.1733 39.2537 31.5582 39.3787 31.9077C39.5066 32.2571 39.7012 32.5369 39.9625 32.7472C40.2267 32.9574 40.5591 33.0625 40.9597 33.0625ZM48.6046 34V27.4545H49.8787V34H48.6046ZM49.248 26.4446C49.0265 26.4446 48.8361 26.3707 48.677 26.223C48.5208 26.0724 48.4426 25.8935 48.4426 25.6861C48.4426 25.4759 48.5208 25.2969 48.677 25.1491C48.8361 24.9986 49.0265 24.9233 49.248 24.9233C49.4696 24.9233 49.6586 24.9986 49.8148 25.1491C49.9739 25.2969 50.0534 25.4759 50.0534 25.6861C50.0534 25.8935 49.9739 26.0724 49.8148 26.223C49.6586 26.3707 49.4696 26.4446 49.248 26.4446ZM51.5929 34V27.4545H52.8159V28.5199H52.8968C53.0332 28.1591 53.2562 27.8778 53.5659 27.6761C53.8755 27.4716 54.2463 27.3693 54.6781 27.3693C55.1156 27.3693 55.4821 27.4716 55.7775 27.6761C56.0758 27.8807 56.296 28.1619 56.438 28.5199H56.5062C56.6625 28.1705 56.911 27.892 57.252 27.6847C57.5929 27.4744 57.9991 27.3693 58.4707 27.3693C59.0645 27.3693 59.5488 27.5554 59.9238 27.9276C60.3017 28.2997 60.4906 28.8608 60.4906 29.6108V34H59.2164V29.7301C59.2164 29.2869 59.0957 28.9659 58.8542 28.767C58.6127 28.5682 58.3244 28.4688 57.9892 28.4688C57.5744 28.4688 57.252 28.5966 57.0218 28.8523C56.7917 29.1051 56.6767 29.4304 56.6767 29.8281V34H55.4068V29.6491C55.4068 29.294 55.296 29.0085 55.0744 28.7926C54.8528 28.5767 54.5645 28.4688 54.2093 28.4688C53.9679 28.4688 53.7449 28.5327 53.5403 28.6605C53.3386 28.7855 53.1752 28.9602 53.0502 29.1847C52.9281 29.4091 52.867 29.669 52.867 29.9645V34H51.5929ZM64.1032 34.1449C63.6884 34.1449 63.3134 34.0682 62.9782 33.9148C62.6429 33.7585 62.3773 33.5327 62.1813 33.2372C61.9881 32.9418 61.8915 32.5795 61.8915 32.1506C61.8915 31.7812 61.9625 31.4773 62.1046 31.2386C62.2466 31 62.4384 30.8111 62.6799 30.6719C62.9213 30.5327 63.1912 30.4276 63.4895 30.3565C63.7878 30.2855 64.0918 30.2315 64.4015 30.1946C64.7935 30.1491 65.1117 30.1122 65.356 30.0838C65.6003 30.0526 65.7779 30.0028 65.8887 29.9347C65.9995 29.8665 66.0549 29.7557 66.0549 29.6023V29.5724C66.0549 29.2003 65.9498 28.9119 65.7395 28.7074C65.5321 28.5028 65.2225 28.4006 64.8105 28.4006C64.3816 28.4006 64.0435 28.4957 63.7963 28.6861C63.552 28.8736 63.383 29.0824 63.2892 29.3125L62.0918 29.0398C62.2338 28.642 62.4412 28.321 62.714 28.0767C62.9895 27.8295 63.3063 27.6506 63.6642 27.5398C64.0222 27.4261 64.3986 27.3693 64.7935 27.3693C65.0549 27.3693 65.3319 27.4006 65.6245 27.4631C65.9199 27.5227 66.1955 27.6335 66.4512 27.7955C66.7097 27.9574 66.9213 28.1889 67.0861 28.4901C67.2509 28.7884 67.3333 29.1761 67.3333 29.6534V34H66.089V33.1051H66.0378C65.9554 33.2699 65.8319 33.4318 65.6671 33.5909C65.5023 33.75 65.2907 33.8821 65.0321 33.9872C64.7736 34.0923 64.464 34.1449 64.1032 34.1449ZM64.3801 33.1222C64.7324 33.1222 65.0336 33.0526 65.2836 32.9134C65.5364 32.7741 65.7282 32.5923 65.8588 32.3679C65.9924 32.1406 66.0591 31.8977 66.0591 31.6392V30.7955C66.0137 30.8409 65.9256 30.8835 65.7949 30.9233C65.6671 30.9602 65.5208 30.9929 65.356 31.0213C65.1912 31.0469 65.0307 31.071 64.8745 31.0938C64.7182 31.1136 64.5875 31.1307 64.4824 31.1449C64.2353 31.1761 64.0094 31.2287 63.8049 31.3026C63.6032 31.3764 63.4412 31.483 63.3191 31.6222C63.1998 31.7585 63.1401 31.9403 63.1401 32.1676C63.1401 32.483 63.2566 32.7216 63.4895 32.8835C63.7225 33.0426 64.0194 33.1222 64.3801 33.1222ZM71.7747 36.5909C71.2548 36.5909 70.8074 36.5227 70.4324 36.3864C70.0602 36.25 69.7562 36.0696 69.5204 35.8452C69.2846 35.6207 69.1085 35.375 68.992 35.108L70.0872 34.6562C70.1639 34.7812 70.2662 34.9134 70.394 35.0526C70.5247 35.1946 70.7008 35.3153 70.9224 35.4148C71.1468 35.5142 71.4352 35.5639 71.7875 35.5639C72.2704 35.5639 72.6696 35.446 72.9849 35.2102C73.3002 34.9773 73.4579 34.6051 73.4579 34.0938V32.8068H73.377C73.3002 32.946 73.1895 33.1009 73.0446 33.2713C72.9025 33.4418 72.7065 33.5895 72.4565 33.7145C72.2065 33.8395 71.8812 33.902 71.4806 33.902C70.9636 33.902 70.4977 33.7812 70.0829 33.5398C69.671 33.2955 69.3443 32.9361 69.1028 32.4616C68.8642 31.9844 68.7449 31.3977 68.7449 30.7017C68.7449 30.0057 68.8627 29.4091 69.0985 28.9119C69.3372 28.4148 69.6639 28.0341 70.0787 27.7699C70.4934 27.5028 70.9636 27.3693 71.4892 27.3693C71.8954 27.3693 72.2235 27.4375 72.4735 27.5739C72.7235 27.7074 72.9181 27.8636 73.0574 28.0426C73.1994 28.2216 73.3088 28.3793 73.3855 28.5156H73.4792V27.4545H74.7278V34.1449C74.7278 34.7074 74.5971 35.169 74.3358 35.5298C74.0744 35.8906 73.7207 36.1577 73.2747 36.331C72.8315 36.5043 72.3315 36.5909 71.7747 36.5909ZM71.7619 32.8452C72.1284 32.8452 72.438 32.7599 72.6909 32.5895C72.9466 32.4162 73.1397 32.169 73.2704 31.848C73.4039 31.5241 73.4707 31.1364 73.4707 30.6847C73.4707 30.2443 73.4054 29.8565 73.2747 29.5213C73.144 29.1861 72.9522 28.9247 72.6994 28.7372C72.4466 28.5469 72.1341 28.4517 71.7619 28.4517C71.3784 28.4517 71.0588 28.5511 70.8031 28.75C70.5474 28.946 70.3542 29.2131 70.2235 29.5511C70.0957 29.8892 70.0318 30.267 70.0318 30.6847C70.0318 31.1136 70.0971 31.4901 70.2278 31.8139C70.3585 32.1378 70.5517 32.3906 70.8074 32.5724C71.0659 32.7543 71.3841 32.8452 71.7619 32.8452ZM79.2576 34.1321C78.6127 34.1321 78.0574 33.9943 77.5914 33.7188C77.1284 33.4403 76.7704 33.0497 76.5176 32.5469C76.2676 32.0412 76.1426 31.4489 76.1426 30.7699C76.1426 30.0994 76.2676 29.5085 76.5176 28.9972C76.7704 28.4858 77.1227 28.0866 77.5744 27.7997C78.0289 27.5128 78.5602 27.3693 79.1681 27.3693C79.5375 27.3693 79.8954 27.4304 80.242 27.5526C80.5886 27.6747 80.8997 27.8665 81.1752 28.1278C81.4508 28.3892 81.6681 28.7287 81.8272 29.1463C81.9863 29.5611 82.0659 30.0653 82.0659 30.6591V31.1108H76.8627V30.1562H80.8173C80.8173 29.821 80.7491 29.5241 80.6127 29.2656C80.4764 29.0043 80.2846 28.7983 80.0375 28.6477C79.7931 28.4972 79.5062 28.4219 79.1767 28.4219C78.8187 28.4219 78.5062 28.5099 78.2392 28.6861C77.975 28.8594 77.7704 29.0866 77.6255 29.3679C77.4835 29.6463 77.4125 29.9489 77.4125 30.2756V31.0213C77.4125 31.4588 77.4892 31.831 77.6426 32.1378C77.7988 32.4446 78.0162 32.679 78.2946 32.8409C78.573 33 78.8983 33.0795 79.2704 33.0795C79.5119 33.0795 79.7321 33.0455 79.9309 32.9773C80.1298 32.9062 80.3017 32.8011 80.4466 32.6619C80.5914 32.5227 80.7022 32.3509 80.7789 32.1463L81.9849 32.3636C81.8883 32.7187 81.715 33.0298 81.465 33.2969C81.2179 33.5611 80.9068 33.767 80.5318 33.9148C80.1596 34.0597 79.7349 34.1321 79.2576 34.1321ZM33.0661 49.1449C32.6513 49.1449 32.2763 49.0682 31.9411 48.9148C31.6058 48.7585 31.3402 48.5327 31.1442 48.2372C30.951 47.9418 30.8544 47.5795 30.8544 47.1506C30.8544 46.7812 30.9254 46.4773 31.0675 46.2386C31.2095 46 31.4013 45.8111 31.6428 45.6719C31.8842 45.5327 32.1541 45.4276 32.4524 45.3565C32.7507 45.2855 33.0547 45.2315 33.3643 45.1946C33.7564 45.1491 34.0746 45.1122 34.3189 45.0838C34.5632 45.0526 34.7408 45.0028 34.8516 44.9347C34.9624 44.8665 35.0178 44.7557 35.0178 44.6023V44.5724C35.0178 44.2003 34.9126 43.9119 34.7024 43.7074C34.495 43.5028 34.1854 43.4006 33.7734 43.4006C33.3445 43.4006 33.0064 43.4957 32.7592 43.6861C32.5149 43.8736 32.3459 44.0824 32.2521 44.3125L31.0547 44.0398C31.1967 43.642 31.4041 43.321 31.6768 43.0767C31.9524 42.8295 32.2692 42.6506 32.6271 42.5398C32.9851 42.4261 33.3615 42.3693 33.7564 42.3693C34.0178 42.3693 34.2947 42.4006 34.5874 42.4631C34.8828 42.5227 35.1584 42.6335 35.4141 42.7955C35.6726 42.9574 35.8842 43.1889 36.049 43.4901C36.2138 43.7884 36.2962 44.1761 36.2962 44.6534V49H35.0518V48.1051H35.0007C34.9183 48.2699 34.7947 48.4318 34.63 48.5909C34.4652 48.75 34.2536 48.8821 33.995 48.9872C33.7365 49.0923 33.4268 49.1449 33.0661 49.1449ZM33.343 48.1222C33.6953 48.1222 33.9964 48.0526 34.2464 47.9134C34.4993 47.7741 34.6911 47.5923 34.8217 47.3679C34.9553 47.1406 35.022 46.8977 35.022 46.6392V45.7955C34.9766 45.8409 34.8885 45.8835 34.7578 45.9233C34.63 45.9602 34.4837 45.9929 34.3189 46.0213C34.1541 46.0469 33.9936 46.071 33.8374 46.0938C33.6811 46.1136 33.5504 46.1307 33.4453 46.1449C33.1982 46.1761 32.9723 46.2287 32.7678 46.3026C32.5661 46.3764 32.4041 46.483 32.282 46.6222C32.1626 46.7585 32.103 46.9403 32.103 47.1676C32.103 47.483 32.2195 47.7216 32.4524 47.8835C32.6854 48.0426 32.9822 48.1222 33.343 48.1222ZM43.3583 42.4545L40.9847 49H39.6211L37.2433 42.4545H38.6112L40.2688 47.4915H40.337L41.9904 42.4545H43.3583ZM46.2731 49.1449C45.8583 49.1449 45.4833 49.0682 45.1481 48.9148C44.8129 48.7585 44.5472 48.5327 44.3512 48.2372C44.158 47.9418 44.0614 47.5795 44.0614 47.1506C44.0614 46.7812 44.1325 46.4773 44.2745 46.2386C44.4165 46 44.6083 45.8111 44.8498 45.6719C45.0913 45.5327 45.3612 45.4276 45.6594 45.3565C45.9577 45.2855 46.2617 45.2315 46.5714 45.1946C46.9634 45.1491 47.2816 45.1122 47.5259 45.0838C47.7702 45.0526 47.9478 45.0028 48.0586 44.9347C48.1694 44.8665 48.2248 44.7557 48.2248 44.6023V44.5724C48.2248 44.2003 48.1197 43.9119 47.9094 43.7074C47.7021 43.5028 47.3924 43.4006 46.9805 43.4006C46.5515 43.4006 46.2134 43.4957 45.9663 43.6861C45.7219 43.8736 45.5529 44.0824 45.4592 44.3125L44.2617 44.0398C44.4038 43.642 44.6112 43.321 44.8839 43.0767C45.1594 42.8295 45.4762 42.6506 45.8342 42.5398C46.1921 42.4261 46.5685 42.3693 46.9634 42.3693C47.2248 42.3693 47.5018 42.4006 47.7944 42.4631C48.0898 42.5227 48.3654 42.6335 48.6211 42.7955C48.8796 42.9574 49.0913 43.1889 49.256 43.4901C49.4208 43.7884 49.5032 44.1761 49.5032 44.6534V49H48.2589V48.1051H48.2077C48.1254 48.2699 48.0018 48.4318 47.837 48.5909C47.6722 48.75 47.4606 48.8821 47.2021 48.9872C46.9435 49.0923 46.6339 49.1449 46.2731 49.1449ZM46.5501 48.1222C46.9023 48.1222 47.2035 48.0526 47.4535 47.9134C47.7063 47.7741 47.8981 47.5923 48.0288 47.3679C48.1623 47.1406 48.229 46.8977 48.229 46.6392V45.7955C48.1836 45.8409 48.0955 45.8835 47.9648 45.9233C47.837 45.9602 47.6907 45.9929 47.5259 46.0213C47.3612 46.0469 47.2006 46.071 47.0444 46.0938C46.8881 46.1136 46.7575 46.1307 46.6523 46.1449C46.4052 46.1761 46.1793 46.2287 45.9748 46.3026C45.7731 46.3764 45.6112 46.483 45.489 46.6222C45.3697 46.7585 45.31 46.9403 45.31 47.1676C45.31 47.483 45.4265 47.7216 45.6594 47.8835C45.8924 48.0426 46.1893 48.1222 46.5501 48.1222ZM51.2003 49V42.4545H52.4744V49H51.2003ZM51.8438 41.4446C51.6222 41.4446 51.4318 41.3707 51.2727 41.223C51.1165 41.0724 51.0384 40.8935 51.0384 40.6861C51.0384 40.4759 51.1165 40.2969 51.2727 40.1491C51.4318 39.9986 51.6222 39.9233 51.8438 39.9233C52.0653 39.9233 52.2543 39.9986 52.4105 40.1491C52.5696 40.2969 52.6491 40.4759 52.6491 40.6861C52.6491 40.8935 52.5696 41.0724 52.4105 41.223C52.2543 41.3707 52.0653 41.4446 51.8438 41.4446ZM55.4627 40.2727V49H54.1886V40.2727H55.4627ZM59.0817 49.1449C58.6669 49.1449 58.2919 49.0682 57.9567 48.9148C57.6214 48.7585 57.3558 48.5327 57.1598 48.2372C56.9666 47.9418 56.87 47.5795 56.87 47.1506C56.87 46.7812 56.9411 46.4773 57.0831 46.2386C57.2251 46 57.4169 45.8111 57.6584 45.6719C57.8999 45.5327 58.1697 45.4276 58.468 45.3565C58.7663 45.2855 59.0703 45.2315 59.38 45.1946C59.772 45.1491 60.0902 45.1122 60.3345 45.0838C60.5788 45.0526 60.7564 45.0028 60.8672 44.9347C60.978 44.8665 61.0334 44.7557 61.0334 44.6023V44.5724C61.0334 44.2003 60.9283 43.9119 60.718 43.7074C60.5107 43.5028 60.201 43.4006 59.7891 43.4006C59.3601 43.4006 59.022 43.4957 58.7749 43.6861C58.5305 43.8736 58.3615 44.0824 58.2678 44.3125L57.0703 44.0398C57.2124 43.642 57.4197 43.321 57.6925 43.0767C57.968 42.8295 58.2848 42.6506 58.6428 42.5398C59.0007 42.4261 59.3771 42.3693 59.772 42.3693C60.0334 42.3693 60.3104 42.4006 60.603 42.4631C60.8984 42.5227 61.174 42.6335 61.4297 42.7955C61.6882 42.9574 61.8999 43.1889 62.0646 43.4901C62.2294 43.7884 62.3118 44.1761 62.3118 44.6534V49H61.0675V48.1051H61.0163C60.9339 48.2699 60.8104 48.4318 60.6456 48.5909C60.4808 48.75 60.2692 48.8821 60.0107 48.9872C59.7521 49.0923 59.4425 49.1449 59.0817 49.1449ZM59.3587 48.1222C59.7109 48.1222 60.0121 48.0526 60.2621 47.9134C60.5149 47.7741 60.7067 47.5923 60.8374 47.3679C60.9709 47.1406 61.0376 46.8977 61.0376 46.6392V45.7955C60.9922 45.8409 60.9041 45.8835 60.7734 45.9233C60.6456 45.9602 60.4993 45.9929 60.3345 46.0213C60.1697 46.0469 60.0092 46.071 59.853 46.0938C59.6967 46.1136 59.5661 46.1307 59.4609 46.1449C59.2138 46.1761 58.9879 46.2287 58.7834 46.3026C58.5817 46.3764 58.4197 46.483 58.2976 46.6222C58.1783 46.7585 58.1186 46.9403 58.1186 47.1676C58.1186 47.483 58.2351 47.7216 58.468 47.8835C58.701 48.0426 58.9979 48.1222 59.3587 48.1222ZM64.1112 49V40.2727H65.3853V43.5156H65.462C65.5359 43.3793 65.6424 43.2216 65.7816 43.0426C65.9208 42.8636 66.114 42.7074 66.3612 42.5739C66.6083 42.4375 66.935 42.3693 67.3413 42.3693C67.8697 42.3693 68.3413 42.5028 68.756 42.7699C69.1708 43.0369 69.4961 43.4219 69.7319 43.9247C69.9705 44.4276 70.0898 45.0327 70.0898 45.7401C70.0898 46.4474 69.9719 47.054 69.7362 47.5597C69.5004 48.0625 69.1765 48.4503 68.7646 48.723C68.3526 48.9929 67.8825 49.1278 67.354 49.1278C66.9563 49.1278 66.631 49.0611 66.3782 48.9276C66.1282 48.794 65.9322 48.6378 65.7901 48.4588C65.6481 48.2798 65.5387 48.1207 65.462 47.9815H65.3555V49H64.1112ZM65.3597 45.7273C65.3597 46.1875 65.4265 46.5909 65.56 46.9375C65.6935 47.2841 65.8867 47.5554 66.1396 47.7514C66.3924 47.9446 66.7021 48.0412 67.0685 48.0412C67.4492 48.0412 67.7674 47.9403 68.0231 47.7386C68.2788 47.5341 68.4719 47.2571 68.6026 46.9077C68.7362 46.5582 68.8029 46.1648 68.8029 45.7273C68.8029 45.2955 68.7376 44.9077 68.6069 44.5639C68.479 44.2202 68.2859 43.9489 68.0273 43.75C67.7717 43.5511 67.4521 43.4517 67.0685 43.4517C66.6992 43.4517 66.3867 43.5469 66.131 43.7372C65.8782 43.9276 65.6864 44.1932 65.5558 44.5341C65.4251 44.875 65.3597 45.2727 65.3597 45.7273ZM72.7947 40.2727V49H71.5206V40.2727H72.7947ZM77.3299 49.1321C76.685 49.1321 76.1296 48.9943 75.6637 48.7188C75.2006 48.4403 74.8427 48.0497 74.5898 47.5469C74.3398 47.0412 74.2148 46.4489 74.2148 45.7699C74.2148 45.0994 74.3398 44.5085 74.5898 43.9972C74.8427 43.4858 75.195 43.0866 75.6467 42.7997C76.1012 42.5128 76.6325 42.3693 77.2404 42.3693C77.6097 42.3693 77.9677 42.4304 78.3143 42.5526C78.6609 42.6747 78.9719 42.8665 79.2475 43.1278C79.5231 43.3892 79.7404 43.7287 79.8995 44.1463C80.0586 44.5611 80.1381 45.0653 80.1381 45.6591V46.1108H74.935V45.1562H78.8896C78.8896 44.821 78.8214 44.5241 78.685 44.2656C78.5487 44.0043 78.3569 43.7983 78.1097 43.6477C77.8654 43.4972 77.5785 43.4219 77.2489 43.4219C76.891 43.4219 76.5785 43.5099 76.3114 43.6861C76.0472 43.8594 75.8427 44.0866 75.6978 44.3679C75.5558 44.6463 75.4847 44.9489 75.4847 45.2756V46.0213C75.4847 46.4588 75.5614 46.831 75.7148 47.1378C75.8711 47.4446 76.0884 47.679 76.3668 47.8409C76.6452 48 76.9705 48.0795 77.3427 48.0795C77.5842 48.0795 77.8043 48.0455 78.0032 47.9773C78.2021 47.9062 78.3739 47.8011 78.5188 47.6619C78.6637 47.5227 78.7745 47.3509 78.8512 47.1463L80.0572 47.3636C79.9606 47.7187 79.7873 48.0298 79.5373 48.2969C79.2901 48.5611 78.979 48.767 78.604 48.9148C78.2319 49.0597 77.8072 49.1321 77.3299 49.1321Z" fill="#B8B8B8"></path>
              </svg>