<svg width="32" height="32" viewBox="0 0 45 44" fill="none" xmlns="http://www.w3.org/2000/svg" style="opacity: 0;">
                        <rect x="0.799805" width="44" height="44" rx="22" fill="#F44336"></rect>
                        <g clip-path="url(#clip0_291_1185)">
                          <path d="M26.351 22.9961L24.341 25.013C23.5259 25.831 22.0917 25.8486 21.2589 25.013L19.2488 22.9961L12.0293 30.2391C12.298 30.3633 12.5943 30.4375 12.9093 30.4375H32.6906C33.0056 30.4375 33.3018 30.3634 33.5704 30.2391L26.351 22.9961Z" fill="white"></path>
                          <path d="M32.6905 13.5625H12.9092C12.5942 13.5625 12.2979 13.6367 12.0293 13.7609L19.7438 21.5011C19.7444 21.5016 19.745 21.5017 19.7455 21.5022C19.746 21.5027 19.7461 21.5034 19.7461 21.5034L22.2545 24.0201C22.521 24.2866 23.0789 24.2866 23.3453 24.0201L25.8532 21.5038C25.8532 21.5038 25.8538 21.5027 25.8543 21.5022C25.8543 21.5022 25.8555 21.5016 25.856 21.5011L33.5703 13.7609C33.3017 13.6366 33.0055 13.5625 32.6905 13.5625Z" fill="white"></path>
                          <path d="M11.0241 14.7443C10.8851 15.0255 10.7998 15.3376 10.7998 15.6719V28.3281C10.7998 28.6624 10.885 28.9745 11.0241 29.2557L18.2561 22.0002L11.0241 14.7443Z" fill="white"></path>
                          <path d="M34.5757 14.7442L27.3438 22.0002L34.5757 29.2558C34.7147 28.9746 34.8 28.6625 34.8 28.3281V15.6719C34.8 15.3375 34.7147 15.0254 34.5757 14.7442Z" fill="white"></path>
                        </g>
                        <defs>
                          <clipPath id="clip0_291_1185">
                            <rect width="24" height="24" fill="white" transform="translate(10.7998 10)"></rect>
                          </clipPath>
                        </defs>
                      </svg>