<svg width="12" height="14" viewBox="0 0 12 14" fill="none" xmlns="http://www.w3.org/2000/svg">
                      <path d="M10 9.71999C9.49333 9.71999 9.04 9.91999 8.69333 10.2333L3.94 7.46666C3.97333 7.31333 4 7.15999 4 6.99999C4 6.83999 3.97333 6.68666 3.94 6.53333L8.64 3.79333C9 4.12666 9.47333 4.33333 10 4.33333C11.1067 4.33333 12 3.43999 12 2.33333C12 1.22666 11.1067 0.333328 10 0.333328C8.89333 0.333328 8 1.22666 8 2.33333C8 2.49333 8.02667 2.64666 8.06 2.79999L3.36 5.53999C3 5.20666 2.52667 4.99999 2 4.99999C0.893333 4.99999 0 5.89333 0 6.99999C0 8.10666 0.893333 8.99999 2 8.99999C2.52667 8.99999 3 8.79333 3.36 8.45999L8.10667 11.2333C8.07333 11.3733 8.05333 11.52 8.05333 11.6667C8.05333 12.74 8.92667 13.6133 10 13.6133C11.0733 13.6133 11.9467 12.74 11.9467 11.6667C11.9467 10.5933 11.0733 9.71999 10 9.71999Z" fill="black" fill-opacity="0.5"></path>
                    </svg>