<svg width="32" height="32" viewBox="0 0 45 44" fill="none" xmlns="http://www.w3.org/2000/svg" style="opacity: 0;">
                        <rect x="0.200195" width="44" height="44" rx="22" fill="#3FC350"></rect>
                        <path fill-rule="evenodd" clip-rule="evenodd" d="M30.1591 14.0081C28.0541 11.9006 25.2547 10.7395 22.2723 10.7383C16.1268 10.7383 11.1253 15.7397 11.1228 21.8868C11.122 23.8518 11.6353 25.7701 12.6111 27.4608L11.0293 33.2383L16.9398 31.6878C18.5684 32.5762 20.4019 33.0444 22.2678 33.0449H22.2724C28.4172 33.0449 33.4193 28.0431 33.4216 21.8957C33.4229 18.9165 32.2642 16.1154 30.1591 14.0081ZM22.2723 31.162H22.2684C20.6057 31.1613 18.9749 30.7144 17.5519 29.8703L17.2136 29.6694L13.7063 30.5895L14.6424 27.1698L14.422 26.8192C13.4944 25.3438 13.0045 23.6384 13.0053 21.8875C13.0072 16.7782 17.1645 12.6213 22.276 12.6213C24.7512 12.6222 27.078 13.5873 28.8276 15.3389C30.5771 17.0906 31.5401 19.4189 31.5393 21.895C31.5371 27.0048 27.3801 31.162 22.2723 31.162ZM27.3554 24.2215C27.0769 24.082 25.7072 23.4083 25.4517 23.3152C25.1966 23.2222 25.0106 23.1759 24.8251 23.4547C24.6393 23.7335 24.1055 24.3611 23.9429 24.5469C23.7803 24.7328 23.618 24.7562 23.3393 24.6166C23.0607 24.4772 22.1631 24.1829 21.099 23.2339C20.2709 22.4952 19.7118 21.5829 19.5492 21.3041C19.3869 21.0251 19.5478 20.8888 19.6714 20.7356C19.973 20.3611 20.275 19.9684 20.3678 19.7826C20.4608 19.5967 20.4142 19.434 20.3445 19.2946C20.275 19.1552 19.7178 17.784 19.4858 17.226C19.2594 16.683 19.03 16.7563 18.8588 16.7478C18.6965 16.7397 18.5107 16.7381 18.3249 16.7381C18.1392 16.7381 17.8374 16.8077 17.582 17.0867C17.3267 17.3656 16.6071 18.0395 16.6071 19.4108C16.6071 20.782 17.6053 22.1067 17.7446 22.2926C17.8838 22.4785 19.709 25.2924 22.5036 26.499C23.1682 26.7863 23.6871 26.9575 24.0918 27.0859C24.7592 27.298 25.3663 27.268 25.8464 27.1964C26.3817 27.1163 27.4945 26.5223 27.7269 25.8717C27.959 25.2209 27.959 24.6632 27.8892 24.5469C27.8197 24.4307 27.6339 24.3611 27.3554 24.2215Z" fill="white"></path>
                      </svg>